<?xml version="1.0" standalone="no"?><!-- Generator: Gravit.io --><svg xmlns="http://www.w3.org/2000/svg" xmlns:xlink="http://www.w3.org/1999/xlink" style="isolation:isolate" viewBox="1121.408 984.04 104.684 123.2" width="104.684" height="123.2"><path d=" M 1223.881 996.194 L 1213.408 996.194 L 1213.408 986.251 C 1213.408 985.029 1212.419 984.04 1211.197 984.04 L 1123.619 984.04 C 1122.397 984.04 1121.408 985.029 1121.408 986.251 L 1121.408 1010.557 C 1121.408 1011.779 1122.397 1012.768 1123.619 1012.768 L 1211.197 1012.768 C 1212.419 1012.768 1213.408 1011.779 1213.408 1010.557 L 1213.408 1000.616 L 1221.67 1000.616 L 1221.67 1024.288 L 1168.399 1037.142 C 1167.407 1037.382 1166.707 1038.269 1166.707 1039.291 L 1166.707 1050.335 L 1161.066 1050.335 C 1159.844 1050.335 1158.855 1051.324 1158.855 1052.546 L 1158.855 1105.029 C 1158.855 1106.251 1159.844 1107.24 1161.066 1107.24 L 1176.769 1107.24 C 1177.991 1107.24 1178.98 1106.251 1178.98 1105.029 L 1178.98 1052.546 C 1178.98 1051.324 1177.991 1050.335 1176.769 1050.335 L 1171.129 1050.335 L 1171.129 1041.031 L 1224.4 1028.178 C 1225.392 1027.938 1226.092 1027.051 1226.092 1026.029 L 1226.092 998.405 C 1226.092 997.185 1225.103 996.194 1223.881 996.194 Z  M 1208.988 1008.346 L 1202.102 1008.346 L 1125.832 1008.346 L 1125.832 988.462 L 1208.988 988.462 L 1208.988 1008.346 L 1208.988 1008.346 Z  M 1174.56 1102.818 L 1163.278 1102.818 L 1163.278 1054.757 L 1174.56 1054.757 L 1174.56 1102.818 Z " fill="rgb(0,0,128)"/></svg>
