<?xml version="1.0" standalone="no"?><!-- Generator: Gravit.io --><svg xmlns="http://www.w3.org/2000/svg" xmlns:xlink="http://www.w3.org/1999/xlink" style="isolation:isolate" viewBox="507.148 984.04 123.203 123.2" width="123.203" height="123.2"><path d=" M 524.266 1024.697 C 523.117 1024.697 522.185 1025.628 522.185 1026.779 L 522.185 1064.503 C 522.185 1065.652 523.117 1066.585 524.266 1066.585 C 525.416 1066.585 526.348 1065.652 526.348 1064.503 L 526.348 1026.779 C 526.348 1025.63 525.416 1024.697 524.266 1024.697 Z  M 612.523 1066.585 C 613.672 1066.585 614.605 1065.652 614.605 1064.503 L 614.605 1026.779 C 614.605 1025.628 613.672 1024.697 612.523 1024.697 C 611.374 1024.697 610.441 1025.628 610.441 1026.779 L 610.441 1064.503 C 610.441 1065.652 611.372 1066.585 612.523 1066.585 Z  M 629.742 984.65 C 628.929 983.837 627.611 983.837 626.798 984.65 L 598.227 1013.22 L 512.621 1013.22 C 511.472 1013.22 510.539 1014.151 510.539 1015.301 L 510.539 1075.98 C 510.539 1077.131 511.472 1078.062 512.621 1078.062 L 533.383 1078.062 L 507.758 1103.686 C 506.945 1104.499 506.945 1105.817 507.758 1106.631 C 508.165 1107.037 508.698 1107.24 509.231 1107.24 C 509.764 1107.24 510.297 1107.037 510.703 1106.631 L 539.272 1078.062 L 623.867 1078.062 C 625.016 1078.062 625.949 1077.131 625.949 1075.98 L 625.949 1015.301 C 625.949 1014.151 625.016 1013.22 623.867 1013.22 L 604.115 1013.22 L 629.742 987.593 C 630.555 986.782 630.555 985.463 629.742 984.65 Z  M 514.703 1073.899 L 514.703 1017.383 L 594.063 1017.383 L 583.445 1028 C 579.462 1024.676 574.342 1022.671 568.762 1022.671 C 556.092 1022.671 545.783 1032.974 545.783 1045.64 C 545.783 1051.221 547.79 1056.342 551.116 1060.327 L 537.547 1073.896 L 514.703 1073.896 L 514.703 1073.899 Z  M 554.079 1057.368 C 551.5 1054.15 549.948 1050.076 549.948 1045.641 C 549.948 1035.271 558.388 1026.836 568.763 1026.836 C 573.196 1026.836 577.266 1028.387 580.485 1030.963 L 554.079 1057.368 Z  M 583.428 1033.907 C 586.008 1037.127 587.561 1041.203 587.561 1045.641 C 587.561 1056.011 579.129 1064.446 568.763 1064.446 C 564.324 1064.446 560.245 1062.892 557.024 1060.312 L 583.428 1033.907 Z  M 621.784 1017.383 L 621.784 1073.899 L 543.434 1073.899 L 554.059 1063.273 C 558.046 1066.601 563.172 1068.611 568.76 1068.611 C 581.422 1068.611 591.722 1058.308 591.722 1045.642 C 591.722 1040.056 589.714 1034.932 586.387 1030.947 L 599.949 1017.385 L 621.784 1017.385 L 621.784 1017.383 Z " fill-rule="evenodd" fill="rgb(0,0,128)"/></svg>
