<?xml version="1.0" standalone="no"?><!-- Generator: Gravit.io --><svg xmlns="http://www.w3.org/2000/svg" xmlns:xlink="http://www.w3.org/1999/xlink" style="isolation:isolate" viewBox="809.021 982.39 124.457 126.5" width="124.457" height="126.5"><path d=" M 886.359 1032.939 L 932.822 1080.247 L 932.822 1080.247 C 933.251 1080.701 933.487 1081.304 933.478 1081.929 L 933.478 1104.837 C 933.478 1106.164 932.403 1107.24 931.076 1107.24 L 908.648 1107.24 L 908.648 1107.24 C 907.321 1107.24 906.245 1106.164 906.245 1104.837 L 906.245 1086.415 L 887.823 1086.415 L 887.823 1086.415 C 886.496 1086.415 885.42 1085.339 885.42 1084.012 L 885.42 1065.589 L 867.719 1065.653 C 867.068 1065.657 866.444 1065.397 865.989 1064.933 L 860.943 1059.79 C 860.628 1059.891 860.312 1059.987 859.996 1060.079 L 813.322 1108.13 C 812.862 1108.6 812.222 1108.88 811.562 1108.89 C 810.902 1108.89 810.262 1108.64 809.782 1108.18 C 809.312 1107.72 809.032 1107.08 809.022 1106.42 C 809.012 1105.76 809.272 1105.12 809.732 1104.64 L 851.617 1061.523 C 840.817 1062.151 830.079 1058.13 822.304 1050.179 C 807.219 1034.77 807.391 1010.077 822.688 994.88 C 829.958 987.788 839.756 983.888 849.91 984.044 C 860.065 984.201 869.738 988.4 876.786 995.713 C 884.212 1003.569 887.992 1014.032 887.489 1024.597 L 927.752 983.15 C 928.212 982.67 928.852 982.4 929.512 982.39 C 930.172 982.38 930.812 982.63 931.292 983.09 C 931.762 983.56 932.042 984.19 932.052 984.85 C 932.062 985.51 931.802 986.15 931.342 986.63 L 886.359 1032.939 Z  M 863.977 1055.981 L 868.696 1060.784 L 887.807 1060.784 C 888.437 1060.783 889.046 1061.011 889.521 1061.424 C 889.972 1061.875 890.225 1062.485 890.226 1063.122 L 890.226 1081.609 L 908.648 1081.609 L 908.648 1081.609 C 909.963 1081.609 911.034 1082.665 911.051 1083.98 L 911.051 1102.434 L 928.673 1102.434 L 928.673 1102.434 L 928.673 1082.906 L 883.011 1036.386 L 863.977 1055.981 Z  M 857.204 1055.772 C 845.951 1058.527 833.954 1055.197 825.716 1046.799 C 812.502 1033.281 812.653 1011.641 826.052 998.308 C 832.405 992.123 840.961 988.724 849.826 988.862 C 858.691 989.001 867.136 992.665 873.294 999.045 C 881.231 1007.449 884.399 1019.221 881.862 1030.389 L 857.204 1055.772 Z  M 846.173 1014.552 L 840.566 1020.222 C 839.614 1021.126 838.122 1021.126 837.17 1020.222 L 831.499 1014.552 C 830.562 1013.613 830.562 1012.094 831.499 1011.155 L 837.17 1005.485 C 838.108 1004.548 839.628 1004.548 840.566 1005.485 L 846.173 1011.123 C 846.633 1011.575 846.892 1012.193 846.892 1012.838 C 846.892 1013.482 846.633 1014.1 846.173 1014.552 L 846.173 1014.552 Z  M 843.914 1002.088 C 841.096 999.286 836.544 999.286 833.726 1002.088 L 828.055 1007.759 C 825.244 1010.574 825.244 1015.133 828.055 1017.948 L 833.726 1023.619 C 836.54 1026.43 841.099 1026.43 843.914 1023.619 L 849.585 1017.948 C 852.387 1015.13 852.387 1010.577 849.585 1007.759 L 843.914 1002.088 L 843.914 1002.088 Z " fill-rule="evenodd" fill="rgb(0,0,128)"/></svg>
